<svg width="2920" height="940" viewBox="0 0 2920 940" fill="none" xmlns="http://www.w3.org/2000/svg">
<rect y="469.519" width="664" height="664" rx="83" transform="rotate(-45 0 469.519)" fill="#002A83"/>
<rect x="39.322" y="281.427" width="664" height="664" rx="83" transform="rotate(-21.3839 39.322 281.427)" fill="#2379E1"/>
<g filter="url(#filter0_d_112_46)">
<rect x="137.519" y="137.519" width="664" height="664" rx="83" fill="#2333E1"/>
</g>
<rect width="92.7866" height="242.627" rx="46.3933" transform="matrix(0.695609 -0.718421 0.748717 0.66289 256 477.441)" fill="#CAE1FF"/>
<rect width="93.2812" height="366.857" rx="46.6406" transform="matrix(-0.776089 -0.630623 0.664256 -0.747505 439.908 638.053)" fill="white"/>
<path d="M1139.96 652V288.364H1205.84V455.445H1210.28L1352.14 288.364H1432.58L1291.95 451.538L1433.82 652H1354.63L1246.14 496.105L1205.84 543.69V652H1139.96ZM1495.33 754.273C1486.57 754.273 1478.46 753.563 1471.01 752.142C1463.67 750.84 1457.81 749.301 1453.43 747.526L1468.34 697.455C1477.69 700.177 1486.04 701.479 1493.38 701.361C1500.72 701.242 1507.17 698.934 1512.73 694.436C1518.41 690.056 1523.21 682.717 1527.11 672.419L1532.62 657.682L1433.72 379.273H1501.9L1564.76 585.239H1567.6L1630.63 379.273H1698.99L1589.79 685.026C1584.7 699.467 1577.96 711.837 1569.55 722.135C1561.15 732.552 1550.85 740.482 1538.66 745.928C1526.58 751.491 1512.14 754.273 1495.33 754.273ZM1807.64 492.199V652H1743.37V379.273H1804.8V425.615H1808C1814.27 410.345 1824.27 398.212 1838.01 389.216C1851.85 380.22 1868.96 375.722 1889.32 375.722C1908.14 375.722 1924.53 379.746 1938.5 387.795C1952.59 395.845 1963.48 407.504 1971.17 422.774C1978.99 438.044 1982.83 456.569 1982.71 478.349V652H1918.44V488.293C1918.44 470.063 1913.7 455.8 1904.23 445.501C1894.88 435.203 1881.92 430.054 1865.35 430.054C1854.1 430.054 1844.1 432.54 1835.34 437.511C1826.7 442.365 1819.89 449.408 1814.92 458.641C1810.07 467.874 1807.64 479.06 1807.64 492.199ZM2168.69 657.327C2141.35 657.327 2117.74 651.645 2097.85 640.281C2078.08 628.799 2062.87 612.582 2052.22 591.631C2041.56 570.561 2036.24 545.762 2036.24 517.234C2036.24 489.18 2041.56 464.559 2052.22 443.371C2062.99 422.064 2078.02 405.492 2097.32 393.655C2116.61 381.699 2139.28 375.722 2165.32 375.722C2182.13 375.722 2197.99 378.444 2212.91 383.889C2227.94 389.216 2241.2 397.502 2252.68 408.747C2264.28 419.992 2273.39 434.315 2280.02 451.716C2286.65 468.998 2289.97 489.595 2289.97 513.506V533.214H2066.42V489.891H2228.35C2228.23 477.58 2225.57 466.631 2220.36 457.043C2215.15 447.336 2207.87 439.701 2198.52 434.138C2189.29 428.574 2178.52 425.793 2166.21 425.793C2153.07 425.793 2141.53 428.989 2131.58 435.381C2121.64 441.654 2113.89 449.94 2108.32 460.239C2102.88 470.419 2100.1 481.605 2099.98 493.797V531.616C2099.98 547.478 2102.88 561.091 2108.68 572.455C2114.48 583.7 2122.59 592.341 2133 598.378C2143.42 604.296 2155.61 607.256 2169.58 607.256C2178.93 607.256 2187.4 605.954 2194.97 603.349C2202.55 600.627 2209.12 596.661 2214.68 591.453C2220.24 586.245 2224.45 579.794 2227.29 572.099L2287.3 578.847C2283.51 594.708 2276.29 608.558 2265.64 620.395C2255.1 632.114 2241.61 641.228 2225.16 647.739C2208.7 654.131 2189.88 657.327 2168.69 657.327ZM2480.43 379.273V428.989H2323.65V379.273H2480.43ZM2362.35 313.932H2426.63V569.969C2426.63 578.61 2427.93 585.239 2430.53 589.855C2433.26 594.353 2436.81 597.431 2441.19 599.088C2445.57 600.745 2450.42 601.574 2455.75 601.574C2459.77 601.574 2463.44 601.278 2466.76 600.686C2470.19 600.094 2472.79 599.562 2474.57 599.088L2485.4 649.337C2481.97 650.52 2477.05 651.822 2470.66 653.243C2464.39 654.663 2456.69 655.492 2447.58 655.729C2431.48 656.202 2416.98 653.776 2404.08 648.449C2391.18 643.004 2380.94 634.599 2373.36 623.236C2365.9 611.872 2362.23 597.668 2362.35 580.622V313.932ZM2534.08 652V379.273H2598.36V652H2534.08ZM2566.4 340.565C2556.22 340.565 2547.46 337.192 2540.12 330.445C2532.78 323.579 2529.11 315.352 2529.11 305.764C2529.11 296.058 2532.78 287.831 2540.12 281.084C2547.46 274.218 2556.22 270.786 2566.4 270.786C2576.7 270.786 2585.46 274.218 2592.68 281.084C2600.02 287.831 2603.69 296.058 2603.69 305.764C2603.69 315.352 2600.02 323.579 2592.68 330.445C2585.46 337.192 2576.7 340.565 2566.4 340.565ZM2783.32 657.327C2756.09 657.327 2732.71 651.349 2713.18 639.393C2693.77 627.438 2678.8 610.925 2668.26 589.855C2657.84 568.667 2652.64 544.282 2652.64 516.702C2652.64 489.003 2657.96 464.559 2668.62 443.371C2679.27 422.064 2694.3 405.492 2713.72 393.655C2733.25 381.699 2756.33 375.722 2782.96 375.722C2805.1 375.722 2824.69 379.805 2841.73 387.973C2858.9 396.022 2872.57 407.445 2882.75 422.241C2892.93 436.92 2898.73 454.083 2900.15 473.733H2838.72C2836.23 460.594 2830.31 449.644 2820.96 440.885C2811.73 432.007 2799.36 427.568 2783.85 427.568C2770.71 427.568 2759.17 431.119 2749.23 438.222C2739.28 445.205 2731.53 455.267 2725.97 468.406C2720.52 481.545 2717.8 497.289 2717.8 515.636C2717.8 534.221 2720.52 550.201 2725.97 563.577C2731.41 576.834 2739.05 587.073 2748.87 594.294C2758.81 601.396 2770.47 604.947 2783.85 604.947C2793.32 604.947 2801.78 603.172 2809.24 599.621C2816.82 595.951 2823.15 590.684 2828.24 583.818C2833.33 576.953 2836.82 568.607 2838.72 558.783H2900.15C2898.61 578.077 2892.93 595.182 2883.1 610.097C2873.28 624.893 2859.9 636.493 2842.98 644.898C2826.05 653.184 2806.16 657.327 2783.32 657.327Z" fill="#001D5A"/>
<defs>
<filter id="filter0_d_112_46" x="94.5189" y="98.519" width="750" height="750" filterUnits="userSpaceOnUse" color-interpolation-filters="sRGB">
<feFlood flood-opacity="0" result="BackgroundImageFix"/>
<feColorMatrix in="SourceAlpha" type="matrix" values="0 0 0 0 0 0 0 0 0 0 0 0 0 0 0 0 0 0 127 0" result="hardAlpha"/>
<feMorphology radius="20" operator="erode" in="SourceAlpha" result="effect1_dropShadow_112_46"/>
<feOffset dy="4"/>
<feGaussianBlur stdDeviation="31.5"/>
<feComposite in2="hardAlpha" operator="out"/>
<feColorMatrix type="matrix" values="0 0 0 0 0 0 0 0 0 0 0 0 0 0 0 0 0 0 0.25 0"/>
<feBlend mode="normal" in2="BackgroundImageFix" result="effect1_dropShadow_112_46"/>
<feBlend mode="normal" in="SourceGraphic" in2="effect1_dropShadow_112_46" result="shape"/>
</filter>
</defs>
</svg>
